<svg width="215" height="182" viewBox="0 0 215 182" fill="none" xmlns="http://www.w3.org/2000/svg">
<g clip-path="url(#clip0_6_96)">
<path fill-rule="evenodd" clip-rule="evenodd" d="M0 91.0002V182L107.559 181.941L215.118 181.882L215.177 90.9411L215.237 0H0V91.0002ZM0.116951 91.1179C0.116951 141.168 0.144121 161.678 0.177198 136.696C0.210275 111.714 0.210275 70.764 0.177198 45.6959C0.144121 20.628 0.116951 41.0679 0.116951 91.1179ZM88.717 23.0256C82.1654 24.4554 75.6909 27.5963 70.5247 31.8505C68.1181 33.8324 65.464 36.7883 64.6191 38.4275C64.3852 38.8813 63.9559 39.5709 63.6655 39.9598C63.3749 40.3488 63.0593 40.9323 62.964 41.2565C62.8686 41.5806 62.5315 42.4187 62.2149 43.1187C61.6041 44.4688 60.5211 48.5593 59.9077 51.8323C59.4742 54.1464 59.3691 77.8222 59.7795 80.7448C60.1669 83.5043 61.0149 87.2784 61.1857 87.0031C61.2776 86.8545 61.6249 87.2539 61.9968 87.9359C62.9844 89.7463 66.2576 93.4426 67.1152 93.7156C67.3193 93.7807 67.7104 94.1364 67.9844 94.5063C68.2585 94.8764 68.9954 95.4786 69.622 95.8449C70.6573 96.4501 71.871 97.283 74.5412 99.2206C77.0248 101.023 84.1451 103.716 88.0066 104.313C90.7423 104.736 126.485 104.656 128.409 104.223C131.928 103.43 136.652 101.641 140.931 99.48C149.44 95.1841 152.526 92.2969 154.971 86.3448C157.075 81.221 157.072 81.25 157.149 65.8925C157.22 51.6262 157.249 52.1027 156.014 46.7966C153.125 34.3768 139.804 24.161 125.129 23.1112C121.959 22.8844 89.7115 22.8087 88.717 23.0256ZM107.236 30.1483L106.319 31.0638V34.7611C106.319 37.0198 106.421 38.6587 106.583 38.9735C107.523 40.8083 110.202 40.7513 111.174 38.8756C111.744 37.7758 111.654 31.7012 111.053 30.7182C110.045 29.0679 108.544 28.8437 107.236 30.1483ZM97.885 30.5288L97.059 31.353L97.1422 34.5956C97.2355 38.2466 97.4758 38.9091 98.8719 39.3691C100.357 39.858 102.3 38.5526 102.304 37.0636C102.305 36.7117 102.349 35.4266 102.403 34.208C102.456 32.9896 102.396 31.7166 102.268 31.379C101.583 29.5675 99.2934 29.1235 97.885 30.5288ZM117.069 30.1434C115.49 31.1161 115.415 31.3295 115.415 34.815V37.9906L116.297 38.7983C117.538 39.9339 118.794 39.936 119.927 38.8047L120.731 38.0031V34.7316C120.731 31.0944 120.619 30.7481 119.226 30.0889C118.196 29.6009 117.938 29.6075 117.069 30.1434ZM80.9203 43.2981C68.9618 45.8496 63.1701 59.4852 69.4958 70.1947C70.7598 72.3346 74.0039 75.4694 75.973 76.4534C80.5066 78.7195 86.443 78.814 91.3046 76.6979C95.7364 74.7688 100.186 69.198 101.133 64.3922C101.514 62.4632 101.301 57.3611 100.77 55.6592C98.0506 46.9522 89.3089 41.5083 80.9203 43.2981ZM129.651 43.1345C116.772 45.4804 110.513 59.6741 117.564 70.5493C120.882 75.6677 125.452 78.1089 131.717 78.1094C138.04 78.1096 142.799 75.8459 145.687 71.4645C148.705 66.8862 149.169 65.4757 149.186 60.8238C149.202 56.8335 148.918 55.5022 147.434 52.5956C144.071 46.0106 136.367 41.9116 129.651 43.1345ZM163.059 58.9378C163.07 65.8953 163.272 71.5218 163.46 70.1101C163.479 69.966 164.092 69.7869 164.822 69.7117C166.978 69.4896 170.528 67.5161 171.055 66.2459C172.201 63.485 169.287 56.9992 164.7 52.101L163.045 50.3329L163.059 58.9378ZM51.6562 52.2918C49.6652 54.0097 47.9578 56.3198 46.5699 59.1736C45.5219 61.3288 45.4808 61.4931 45.4815 63.535C45.4824 66.4965 45.5831 66.7344 47.309 67.8551C49.4115 69.2206 50.4709 69.6157 52.1552 69.6631L53.6319 69.7046V60.4452C53.6319 55.3525 53.5409 51.1297 53.4296 51.0611C53.3183 50.9925 52.5202 51.5463 51.6562 52.2918ZM82.5364 54.4385C78.1622 55.5378 77.6599 61.7968 81.8073 63.526C84.4062 64.6095 88.0293 62.9545 88.4961 60.4709C89.2113 56.6675 86.1196 53.5379 82.5364 54.4385ZM129.827 54.902C126.251 56.5405 126.652 61.9316 130.469 63.5225C134.589 65.2397 138.688 60.2797 136.315 56.4485C135.239 54.7096 131.955 53.9269 129.827 54.902ZM100.058 81.5096C97.6483 82.0978 96.9853 85.5169 98.8967 87.4979C101.168 89.8524 103.569 90.6332 108.563 90.6409C111.848 90.6459 112.25 90.5973 114.062 89.9768C119.345 88.1674 121.426 83.6052 117.82 81.7383C116.61 81.1114 115.975 81.3342 114.244 82.9922C111.274 85.8377 106.81 85.9481 103.647 83.2546C101.727 81.619 101.019 81.275 100.058 81.5096ZM147.027 86.3439C146.761 86.6358 146.131 87.5109 145.628 88.2889C145.124 89.0668 144.26 90.325 143.708 91.0849C142.562 92.6613 142.516 92.9049 143.194 93.8552C143.976 94.9502 144.963 95.3652 145.676 94.8986C147.081 93.9804 150.607 88.4482 150.456 87.3984C150.407 87.0516 150.028 86.706 149.319 86.3599C147.959 85.6965 147.62 85.6942 147.027 86.3439ZM69.2253 87.1855C68.4685 87.5279 67.5877 88.2287 67.2298 88.774C66.8674 89.3259 66.8986 89.4037 68.1867 91.1742C70.284 94.0563 70.726 94.2774 72.5424 93.3528C73.5936 92.8176 73.6897 92.4305 73.0088 91.476C72.7506 91.1143 72.3359 90.3444 72.0869 89.7651C71.587 88.6015 70.2738 86.9828 69.8504 87.0087C69.7016 87.0179 69.4202 87.0974 69.2253 87.1855ZM80.2855 113.086C80.4558 113.154 80.6597 113.146 80.7382 113.067C80.8166 112.989 80.6772 112.933 80.4282 112.943C80.1529 112.955 80.0969 113.011 80.2855 113.086ZM82.3379 118.478C77.636 119.189 72.9989 121.581 68.9444 125.387C64.4939 129.564 62.9674 133.022 61.6445 141.922C60.9008 146.926 60.896 146.912 64.2115 149.278C82.293 162.181 100.992 166.866 120.89 163.477C133.107 161.397 146.509 154.998 154.968 147.205C155.251 146.944 155.229 146.916 154.829 147.021C154.377 147.139 154.348 146.998 154.211 143.976C154.06 140.626 153.756 138.321 153.21 136.382C153.028 135.734 152.816 134.779 152.74 134.26L152.531 132.846C152.413 132.041 152.108 131.313 151.89 131.313C151.775 131.313 151.681 131.101 151.681 130.842C151.681 130.583 151.549 130.369 151.386 130.367C151.189 130.364 151.209 130.287 151.445 130.135C151.703 129.969 151.715 129.905 151.49 129.902C151.32 129.901 151.241 129.802 151.314 129.684C151.387 129.566 151.181 129.498 150.856 129.534C150.171 129.609 150.077 129.32 150.677 128.984C151.07 128.763 151.07 128.744 150.674 128.592C150.445 128.504 150.104 128.559 149.916 128.715C149.502 129.058 149.177 128.124 149.431 127.323C149.542 126.974 149.483 126.834 149.227 126.834C149.028 126.834 148.57 126.442 148.207 125.962C145.781 122.755 141.904 120.593 140.712 121.783C140.526 121.968 140.207 122.119 140.003 122.119C139.799 122.119 139.632 122.216 139.632 122.334C139.632 122.453 139.18 122.625 138.628 122.717C138.076 122.809 137.548 123.004 137.455 123.15C137.282 123.422 136.179 123.464 126.637 123.564C123.401 123.598 121.629 123.526 121.297 123.349C120.504 122.924 114.689 122.305 112.315 122.393C111.12 122.437 110.266 122.395 110.416 122.3C110.566 122.204 110.131 122.125 109.449 122.123C108.767 122.121 108.209 122.214 108.209 122.331C108.209 122.447 106.907 122.594 105.315 122.657C103.723 122.721 101.038 122.902 99.3489 123.061C93.3074 123.627 88.8855 123.055 87.2446 121.495C87.0844 121.343 86.8402 121.181 86.7017 121.134C86.1942 120.966 86.1203 118.408 86.619 118.275C87.497 118.042 84.1876 118.198 82.3379 118.478ZM135.32 118.739C135.483 118.804 135.748 118.804 135.911 118.739C136.073 118.674 135.94 118.62 135.615 118.62C135.291 118.62 135.158 118.674 135.32 118.739ZM141.305 120.791C141.36 120.838 141.67 121.003 141.995 121.157C142.551 121.422 142.559 121.417 142.127 121.071C141.75 120.77 140.981 120.508 141.305 120.791ZM106.089 128.139C93.6285 131.631 95.2048 149.786 108.019 150.361C113.443 150.604 117.786 147.564 119.543 142.295C122.159 134.452 114.04 125.911 106.089 128.139ZM80.994 130.669C77.5933 131.804 76.5069 136.45 78.8785 139.717C81.1129 142.795 86.4671 142.106 88.3071 138.504C90.5486 134.115 85.8273 129.057 80.994 130.669ZM132.3 130.719C126.46 132.587 127.701 141.676 133.798 141.685C137.243 141.69 139.615 139.409 139.627 136.08C139.641 132.106 136.089 129.508 132.3 130.719ZM107.618 133.891C105.11 134.501 103.72 136.294 103.72 138.921C103.72 142.506 106.292 144.768 109.643 144.131C113.785 143.343 115.111 138.09 111.911 135.147C110.519 133.867 109.249 133.495 107.618 133.891Z" fill="white" stroke="white"/>
<path fill-rule="evenodd" clip-rule="evenodd" d="M100.648 16.4295C93.3105 17.0288 85.0703 18.9362 79.1484 21.4064C75.6198 22.8785 74.6256 23.3504 73.3599 24.1546C72.7102 24.5674 70.7723 25.7405 69.0535 26.7615C46.7956 39.9848 32.598 63.7122 31.1804 90.057C29.8545 114.695 40.5948 138.822 59.7747 154.29C100.595 187.213 161.031 171.181 179.933 122.416C184.195 111.419 186.18 96.4251 184.762 85.9313C183.588 77.2394 181.816 70.4158 178.946 63.535C176.646 58.02 172.032 49.8359 169.31 46.443C168.842 45.8595 167.757 44.4804 166.9 43.3782C160.182 34.7434 148.179 25.5578 137.813 21.1191C133.674 19.3464 129.506 18.3077 122.148 17.2138C116.73 16.4083 105.793 16.0092 100.648 16.4295ZM89.544 22.8985C84.0664 23.399 75.6327 27.3443 70.2885 31.9059C64.5503 36.8038 61.756 41.9036 59.9555 50.7643C59.4319 53.3411 59.4215 53.6862 59.4789 66.8355C59.5552 84.2778 59.6854 85.2005 62.9787 91.6252C66.4265 98.3517 70.4021 102.068 78.4396 106.08C80.4636 107.09 83.0446 107.978 86.1181 108.721C88.1918 109.222 88.7026 109.237 106.73 109.325C129.51 109.436 130.411 109.36 136.206 106.843C149.116 101.236 154.987 93.7981 156.993 80.5091C157.518 77.0317 157.512 54.5323 156.985 50.9923C156.225 45.8869 154.476 40.9597 152.46 38.2417C148.756 33.2492 146.152 30.9742 140.288 27.6081C133.859 23.917 130.71 23.1814 119.984 22.866C111.415 22.614 92.4361 22.6342 89.544 22.8985ZM107.551 29.8369C106.516 30.5604 106.319 31.3493 106.319 34.7691C106.319 38.2346 106.557 39.2505 107.528 39.9289C108.336 40.494 109.473 40.4115 110.286 39.7288C111.412 38.7834 111.561 38.12 111.476 34.426L111.398 31.0817L110.516 30.2754C109.526 29.3711 108.446 29.2115 107.551 29.8369ZM98.105 30.5128L97.2225 31.321L97.2934 34.5795C97.3737 38.2796 97.5939 38.8601 99.0564 39.2304C100.159 39.5095 101.266 39.0595 101.857 38.0927C102.23 37.4821 102.301 36.8849 102.301 34.3372L102.302 31.3078L101.499 30.5062C100.388 29.3979 99.3203 29.4001 98.105 30.5128ZM116.478 30.6366L115.651 31.32L115.571 34.3433C115.479 37.815 115.726 38.6012 117.119 39.2606C118.118 39.7337 118.833 39.581 119.847 38.6778L120.613 37.9951V31.317L119.841 30.6286C118.796 29.6962 117.612 29.699 116.478 30.6366ZM80.4478 43.4791C70.8014 45.901 65.1318 55.6149 67.6629 65.384C70.0746 74.6921 78.7949 79.8388 88.3012 77.5645C95.5751 75.8247 101.357 68.5518 101.357 61.143C101.357 53.6108 97.3213 47.4329 90.3669 44.3196C87.7557 43.1505 83.2707 42.7705 80.4478 43.4791ZM128.171 43.5819C122.043 45.3335 117.064 49.9946 115.507 55.4376C114.595 58.6231 114.686 63.9871 115.698 66.6408C119.11 75.5967 127.925 79.9624 137.269 77.3248C147.005 74.5766 152.066 62.4326 147.436 52.9262C143.893 45.6495 135.381 41.521 128.171 43.5819ZM162.898 60.1519C162.983 65.6433 163.035 71.8079 163.015 73.8517L162.978 77.5674L163.592 77.3342C166.562 76.2073 169.778 72.4603 170.834 68.8969C171.184 67.7144 171.06 67.4968 170.308 67.9709C169.057 68.759 168.561 68.68 169.637 67.8641C171.98 66.0891 172.118 64.1102 170.182 60.0758C168.367 56.2915 164.711 51.2832 163.097 50.3683C162.785 50.1912 162.761 51.3282 162.898 60.1519ZM52.5474 51.353C48.9009 53.9969 45.2863 59.9928 45.275 63.4171C45.2592 68.2158 47.3818 73.0687 50.7036 75.8289C51.8136 76.7512 53.3573 77.68 53.5149 77.5207C53.656 77.3778 53.7505 50.9619 53.6104 50.8223C53.5338 50.7457 53.0554 50.9845 52.5474 51.353ZM81.8077 54.4861C79.0224 55.2889 77.9075 59.3638 79.7381 62.0519C82.2134 65.6867 88.3582 64.0449 88.7827 59.6349C89.1336 55.9921 85.6095 53.3906 81.8077 54.4861ZM130.343 54.4625C125.376 55.9501 126.8 63.9706 132.031 63.9659C136.572 63.9619 138.902 58.6302 135.692 55.5876C134.465 54.4244 132.119 53.9307 130.343 54.4625ZM40.3305 75.1457C37.4183 84.3332 36.9923 96.7856 39.2094 107.922C41.3955 118.903 46.4384 129.791 53.1397 137.998C53.8653 138.886 54.6714 139.919 54.9313 140.293C55.5846 141.233 55.6708 141.17 55.8523 139.624C57.4246 126.225 67.842 115.034 80.3887 113.265C81.8763 113.055 81.804 112.848 80.0769 112.368C78.058 111.809 73.3563 109.42 70.2885 107.397C62.4511 102.228 57.0116 94.4127 55.187 85.6998L54.8916 84.2893L53.1395 83.6915C48.723 82.1845 43.8744 78.2447 42.0436 74.6752C41.5952 73.8003 41.1732 73.0843 41.1061 73.0838C41.0392 73.0834 40.6901 74.0113 40.3305 75.1457ZM174.52 74.7456C172.171 78.9156 166.663 83.256 162.974 83.8447C162.247 83.9607 162.077 84.0871 162.077 84.5133C162.077 86.3279 159.172 93.7778 157.296 96.7759C156.079 98.7192 153.231 102.13 151.757 103.41C148.112 106.573 141.939 110.338 138.233 111.658C135.197 112.739 135.2 112.703 138.104 113.287C149.184 115.512 158.6 125.541 161.002 137.679C161.221 138.781 161.453 139.869 161.518 140.096C161.827 141.172 167.317 133.158 170.28 127.306C178.2 111.661 180.39 93.0041 176.217 76.737C175.331 73.2842 175.338 73.2929 174.52 74.7456ZM99.1398 82.0622C96.4589 84.1665 98.053 88.0109 102.266 89.6015C108.79 92.0642 117.09 90.2545 119.101 85.9313C119.92 84.1686 119.49 82.7461 117.886 81.9189C116.66 81.2861 116.122 81.4655 114.336 83.1007C111.019 86.1376 106.566 86.1584 103.314 83.1518C101.446 81.4252 100.324 81.1324 99.1398 82.0622ZM146.678 87.0151C145.401 88.7394 144.776 89.9695 145.586 89.1611C145.742 89.0055 146.326 88.8782 146.885 88.8782C147.729 88.8782 147.901 88.8016 147.901 88.4261C147.901 88.1773 147.959 87.8235 148.03 87.6398C148.1 87.4559 147.959 87.0599 147.715 86.7593L147.271 86.2131L146.678 87.0151ZM68.822 87.6405C67.9183 88.1375 67.0086 89.2491 67.2227 89.5947C67.3191 89.7503 67.4805 89.7623 67.6515 89.6267C67.8025 89.507 68.4444 89.3342 69.0783 89.2427C69.7122 89.151 70.3657 89.0244 70.5309 88.9612C70.6958 88.898 71.0568 89.0881 71.3328 89.3837L71.8346 89.9212L71.5754 89.1793C71.2732 88.3148 70.3305 87.228 69.8826 87.228C69.712 87.228 69.2347 87.4137 68.822 87.6405ZM143.854 91.1768C143.561 91.5507 143.569 91.559 143.944 91.2659C144.171 91.0879 144.357 90.9022 144.357 90.8533C144.357 90.6593 144.163 90.784 143.854 91.1768ZM151.663 92.3556L151.091 93.0039L151.74 92.4324C152.098 92.1179 152.39 91.8263 152.39 91.7841C152.39 91.599 152.199 91.7497 151.663 92.3556ZM64.707 92.36C65.068 93.0331 68.6134 95.9508 69.0703 95.9508C69.1946 95.9508 68.8815 95.6448 68.3747 95.2706C67.8679 94.8965 66.8721 93.9947 66.1619 93.2667C64.8679 91.9404 64.2881 91.579 64.707 92.36ZM149.617 94.3366C148.868 95.0047 148.202 95.6047 148.137 95.67C148.072 95.7351 148.367 95.5886 148.791 95.3447C149.568 94.8984 151.446 93.1217 151.141 93.1217C151.051 93.1217 150.365 93.6685 149.617 94.3366ZM142.703 98.8071C141.729 99.3248 141.091 99.6966 141.286 99.6332L142.5 99.2369C143.213 99.0045 144.982 97.8403 144.593 97.8596C144.528 97.8629 143.678 98.2892 142.703 98.8071ZM83.2095 118.151C75.6994 118.961 67.2409 124.934 64.1494 131.61C62.6026 134.951 61.1633 141.707 61.2089 145.411C61.2355 147.573 60.7748 147.1 66.7906 151.149C78.8771 159.285 89.8121 163.3 102.709 164.339C121.696 165.868 139.251 160.323 154.103 148.103C156.219 146.362 156.164 146.579 155.592 142.254C154.324 132.661 150.952 126.639 144.408 122.283C140.529 119.701 137.289 118.558 132.662 118.141C129.591 117.864 85.7909 117.873 83.2095 118.151ZM106.914 128.022C100.425 129.142 96.0464 136.249 98.0653 142.386C101.738 153.548 117.13 152.727 119.699 141.232C121.307 134.035 114.26 126.755 106.914 128.022ZM81.4323 130.701C78.48 131.512 76.9442 134.832 78.0679 137.974C80.0672 143.564 88.7995 142.027 88.83 136.08C88.8479 132.587 84.9319 129.74 81.4323 130.701ZM131.717 131.167C129.171 132.365 128.058 135.269 129.033 138.174C130.434 142.349 136.601 142.781 138.79 138.857C141.479 134.037 136.688 128.828 131.717 131.167ZM106.274 134.269C102.686 136.133 102.614 142.076 106.159 143.788C108.891 145.108 112.045 144.026 113.318 141.333C115.488 136.74 110.721 131.958 106.274 134.269Z" fill="white" stroke="white"/>
<path fill-rule="evenodd" clip-rule="evenodd" d="M101.357 16.5106C94.2953 16.9614 85.5658 18.8941 79.8572 21.2702C75.3205 23.1588 74.4104 23.6407 67.9259 27.5888C54.4059 35.8205 42.6565 49.823 36.9867 64.4615C26.4845 91.5757 30.4329 119.506 47.9781 142.214C59.3953 156.99 78.1126 167.824 97.2226 170.716C101.192 171.317 110.794 171.564 115.297 171.182C136.372 169.392 156.667 158.071 169.648 140.861C171.899 137.878 174.58 133.465 176.668 129.31C187.291 108.162 187.76 83.4652 177.955 61.649C172.644 49.8348 164.006 38.5934 154.989 31.7635C153.44 30.5897 147.814 26.6732 145.893 25.4305C142.803 23.432 141.824 22.9478 136.327 20.7011C128.623 17.5526 113.474 15.7374 101.357 16.5106ZM88.9533 22.8005C82.3613 23.7095 72.7664 28.8411 67.8077 34.1097C64.1291 38.0182 62.5348 40.8708 60.9157 46.443C59.3325 51.8908 59.2517 53.0026 59.3611 67.8731C59.4835 84.5433 59.6155 85.3988 63.1188 92.216C67.4429 100.631 76.7709 107.183 86.9094 108.927C90.644 109.57 126.843 109.642 129.896 109.014C136.312 107.692 145.004 102.897 149.583 98.152C153.436 94.1607 155.91 88.5619 156.988 81.3948C157.518 77.8757 157.518 53.5033 156.989 50.215C155.48 40.8366 150.734 33.7919 142.585 28.8333C135.464 24.4998 131.583 23.2392 124.224 22.8681C119.898 22.6503 90.4534 22.5937 88.9533 22.8005ZM107.358 30.2705L106.555 31.072V38.7104L107.358 39.5119C108.459 40.6103 109.45 40.52 110.666 39.2106C111.273 38.5576 111.28 38.5088 111.273 34.8936C111.265 30.9549 111.208 30.746 109.926 29.902C108.959 29.2659 108.265 29.3657 107.358 30.2705ZM98.0313 30.6295L97.3407 31.3186V34.5157C97.3407 37.6768 97.348 37.7207 97.9904 38.4112C98.9213 39.4122 100.227 39.4735 101.285 38.5661C101.929 38.013 101.952 37.9133 102.097 34.9709C102.304 30.7618 101.913 29.9404 99.7007 29.9404C98.9338 29.9404 98.5723 30.0897 98.0313 30.6295ZM116.594 30.7066C115.087 32.11 115.122 37.6997 116.645 38.8952C117.679 39.7069 119.245 39.4009 120.192 38.2026C120.553 37.7447 120.603 31.7626 120.251 31.1062C119.565 29.8263 117.751 29.6283 116.594 30.7066ZM81.4732 43.3959C76.9726 44.0551 72.1781 47.3613 69.6133 51.5746C63.782 61.1527 68.8615 74.7676 79.2665 77.4488C85.5991 79.0807 93.3027 76.8271 96.7165 72.3443C99.5758 68.5897 100.663 66.2827 101.111 63.0203C102.672 51.6387 92.7685 41.7414 81.4732 43.3959ZM129.568 43.3775C127.394 43.6956 124.486 44.9288 122.148 46.5232C115.667 50.9447 113.044 59.8568 116.066 67.1891C119.682 75.9619 128.315 79.8992 137.704 77.0577C142.326 75.659 146.593 71.2261 148.339 66.0104C149.225 63.3645 149.224 58 148.336 55.3622C145.565 47.1291 137.803 42.1726 129.568 43.3775ZM162.836 63.762C162.885 71.2127 163.002 77.3849 163.095 77.4778C163.339 77.7213 164.836 76.9617 166.255 75.8747C169.534 73.3616 171.695 68.5466 171.607 63.952C171.572 62.1434 168.936 56.8203 166.731 54.1049C165.444 52.5205 163.204 50.215 162.95 50.215C162.837 50.215 162.786 56.2208 162.836 63.762ZM53.2775 50.733C49.6433 52.793 45.1193 59.8118 45.1295 63.3742C45.1465 69.3201 48.3131 75.0656 52.8685 77.4163L53.5795 77.7829L53.7177 76.5527C53.8389 75.4751 53.9135 50.4392 53.7956 50.4579C53.7706 50.4619 53.5374 50.5856 53.2775 50.733ZM81.9531 54.3445C79.3109 55.184 77.959 58.4088 79.1182 61.107C80.5728 64.4933 84.9787 65.1893 87.5804 62.4439C91.1579 58.6688 87.0323 52.7305 81.9531 54.3445ZM130.579 54.3242C125.18 55.7724 126.475 64.0065 132.102 64.0065C138.135 64.0065 139.226 55.8042 133.393 54.2945C131.995 53.9328 132.04 53.9324 130.579 54.3242ZM40.3343 74.6742C37.9364 81.9512 37.0252 92.7804 38.0576 101.727C39.505 114.267 44.3477 126.639 51.4595 135.965C52.5003 137.33 53.5395 138.696 54.577 140.063L55.6402 141.467L55.8311 140.339C57.6616 129.523 61.5226 123.079 69.4616 117.588C72.3863 115.566 76.1887 114.078 80.2295 113.376C82.1572 113.041 82.1341 112.906 80.0344 112.234C76.2856 111.034 70.2583 107.578 66.6264 104.545C61.1425 99.9656 57.1234 93.2868 55.3148 85.7472L54.9314 84.1484L52.9619 83.4687C48.3734 81.8849 43.4489 77.6591 41.7115 73.8145C41.1213 72.5082 41.0291 72.5657 40.3343 74.6742ZM174.126 75.1156C171.73 79.1354 166.524 83.1167 162.757 83.811C161.943 83.961 161.895 84.0222 161.77 85.0815C161.399 88.2064 158.947 94.0087 156.374 97.8493C152.78 103.215 144.899 109.148 138.235 111.504C134.472 112.834 134.497 112.805 136.804 113.154C142.51 114.019 147.396 116.654 152.304 121.515C156.889 126.056 159.697 131.521 161.063 138.562C161.296 139.761 161.553 140.716 161.633 140.684C162.235 140.447 165.946 135.18 168.425 131.046C176.737 117.185 180.013 99.7841 177.541 82.6309C177.167 80.0373 175.576 73.3147 175.339 73.3255C175.257 73.329 174.711 74.1346 174.126 75.1156ZM99.5739 81.8922C98.1201 82.5427 97.5144 84.2575 98.1511 85.9208C99.8579 90.3802 109.605 92.0934 115.738 89.0119C119.563 87.0898 120.654 83.3013 117.775 81.9382C116.582 81.3734 115.994 81.586 114.236 83.2181C110.802 86.4059 106.714 86.322 102.963 82.9861C101.492 81.6775 100.656 81.408 99.5739 81.8922ZM100.53 117.864C86.8019 117.975 82.1059 118.085 81.3929 118.311C75.8197 120.08 74.8049 120.542 71.8242 122.67C65.3945 127.259 62.3165 132.927 61.4319 141.804C61.2769 143.36 61.1862 145.263 61.2302 146.033L61.3105 147.433L62.8462 148.555C74.6544 157.184 86.0102 162.181 97.9314 163.995C101.176 164.489 112.381 164.697 116.498 164.339C123.863 163.699 134.268 160.562 141.049 156.937C147.189 153.656 156.17 147.224 156.17 146.109C156.17 145.032 155.165 138.63 154.717 136.854C152.853 129.466 148.467 123.975 141.636 120.479C136.133 117.662 134.948 117.587 100.53 117.864ZM105.844 128.351C99.7492 130.594 96.36 136.332 97.9578 141.703C99.485 146.836 102.917 149.809 107.667 150.114C112.192 150.405 115.392 148.905 117.686 145.418C122.022 138.827 119.279 131.015 111.739 128.48C110.124 127.937 107.146 127.872 105.844 128.351ZM80.8039 130.982C78.2459 132.089 77.1418 135.242 78.2782 138.194C79.6868 141.854 84.66 142.545 87.376 139.458C89.1631 137.427 89.0556 134.104 87.1452 132.331C85.5363 130.838 82.5874 130.21 80.8039 130.982ZM131.599 131.354C126.686 133.864 128.454 141.458 133.949 141.448C137.16 141.443 139.378 139.227 139.39 136.012C139.407 131.826 135.383 129.421 131.599 131.354ZM107.5 133.644C104.207 134.714 102.873 137.22 103.719 140.741C105.136 146.636 113.979 145.116 113.964 138.98C113.956 135.591 110.44 132.688 107.5 133.644Z" fill="#243743" stroke="#243743"/>
</g>
<defs>
<clipPath id="clip0_6_96">
<rect width="215" height="182" fill="white"/>
</clipPath>
</defs>
</svg>
